<svg version="1.2" xmlns="http://www.w3.org/2000/svg" viewBox="0 0 132 182" width="132" height="182">
	<style>
		.s0 { fill: #e6e7e8;stroke: #000000;stroke-linecap: round;stroke-linejoin: round;stroke-width: 4.5 } 
		.s1 { fill: none;stroke: #221714;stroke-linecap: round;stroke-linejoin: round;stroke-width: 3.9 } 
		.s2 { fill: #000000 } 
		.s3 { fill: #ffffff } 
		.s4 { fill: #f8f6c6;stroke: #000000;stroke-linecap: round;stroke-linejoin: round;stroke-width: 3 } 
	</style>
	<g>
		<g>
			<path class="s0" d="m67.6 6.4c37.8 0 35.2 57.4 35.2 57.4 0 0 23.9 18.7 23.9 50.5 0 14.2-1.6 20-11.1 20-1.2 2.9-3.4 5.3-7.2 5.3q-1.4 0-2.2-0.5c-4.4 8.1-22.1 12.8-38.6 12.8-16.5 0-34.2-4.7-38.6-12.8q-0.8 0.5-2.2 0.5c-3.8 0-6-2.4-7.2-5.3-9.5 0-11.1-5.8-11.1-20 0-31.8 23.9-50.5 23.9-50.5 0 0-2.6-57.4 35.2-57.4z"/>
			<path class="s1" d=""/>
			<path class="s2" d="m59.8 177.5h-5.1v-27h5.1z"/>
			<path class="s2" d="m55.8 170.6h-4.3c-1.9 0-3.4 1.5-3.4 3.4 0 1.9 1.5 3.5 3.4 3.5h4.3 1.5v-6.9z"/>
			<path class="s2" d="m80.5 177.5h-5.1v-27h5.1z"/>
			<path class="s2" d="m79.4 170.6h4.3c1.9 0 3.4 1.5 3.4 3.4 0 1.9-1.5 3.5-3.4 3.5h-4.3-1.5v-6.9z"/>
			<path class="s0" d="m18.1 124.8c0 0-0.5 14.8 8.9 14.8 9.5 0.1-4-16.6 0-33.7"/>
			<path class="s0" d="m117.1 124.8c0 0 0.5 14.8-8.9 14.8-9.5 0.1 4-16.6 0-33.7"/>
			<path class="s3" d="m91.3 146.5c1.2-16.1 0.6-48.8-23.7-48.8-24.3 0-24.9 32.7-23.7 48.8 6.5 2.2 14.8 3.5 23.7 3.5 8.9 0 17.2-1.3 23.7-3.5z"/>
			<path class="s4" d="m66.7 38.7c3 1.1 4.3 4.8 2.4 7.2-1.7 0.4-4.1 1.1-5.8 1.5q-5.3 1.2-10.6 2.4c-3 0.7-6 1.3-8.9 2.1-0.6 0.1-2 0.3-2.1-0.5 0-0.6 1-1.1 1.4-1.4 1.3-0.9 2.8-1.5 4.3-2.3 3.3-1.7 18.8-8.8 19.3-9z"/>
			<g>
				<path class="s2" d="m61.8 36.6c-0.8 0-1.5-0.7-1.5-1.6 0-1.5-0.8-2.6-1.5-2.6-0.7 0-1.5 1.1-1.5 2.6 0 0.9-0.7 1.6-1.5 1.6-0.9 0-1.6-0.7-1.6-1.6 0-3.2 2-5.7 4.6-5.7 2.6 0 4.6 2.5 4.6 5.7 0 0.9-0.7 1.6-1.6 1.6z"/>
			</g>
			<g>
				<path class="s2" d="m79 36.6c-0.8 0-1.5-0.7-1.5-1.6 0-1.5-0.8-2.6-1.5-2.6-0.7 0-1.5 1.1-1.5 2.6 0 0.9-0.6 1.6-1.5 1.6-0.8 0-1.5-0.7-1.5-1.6 0-3.2 2-5.7 4.5-5.7 2.6 0 4.6 2.5 4.6 5.7 0 0.9-0.7 1.6-1.6 1.6z"/>
			</g>
		</g>
	</g>
</svg>